<mxfile host="app.diagrams.net" modified="2020-09-21T08:24:17.068Z" agent="5.0 (Windows NT 10.0; WOW64) AppleWebKit/537.36 (KHTML, like Gecko) Chrome/78.0.3904.108 Safari/537.36" etag="OysKy6Cqrh1ZuWTOMsM0" version="13.7.3" type="github">
  <diagram name="Page-1" id="e7e014a7-5840-1c2e-5031-d8a46d1fe8dd">
    <mxGraphModel dx="1422" dy="734" grid="1" gridSize="10" guides="1" tooltips="1" connect="1" arrows="1" fold="1" page="1" pageScale="1" pageWidth="1169" pageHeight="826" background="#ffffff" math="0" shadow="0">
      <root>
        <mxCell id="0" />
        <mxCell id="1" parent="0" />
        <mxCell id="2" value="管理员" style="swimlane;whiteSpace=wrap" parent="1" vertex="1">
          <mxGeometry x="164.5" y="128" width="280" height="570" as="geometry" />
        </mxCell>
        <mxCell id="F1i3Ai_UINqrE0Nstsxu-41" value="" style="ellipse;html=1;shape=startState;fillColor=#0066CC;strokeColor=#0066CC;" vertex="1" parent="2">
          <mxGeometry x="25.5" y="82" width="30" height="30" as="geometry" />
        </mxCell>
        <mxCell id="F1i3Ai_UINqrE0Nstsxu-42" value="" style="edgeStyle=orthogonalEdgeStyle;html=1;verticalAlign=bottom;endArrow=open;endSize=8;strokeColor=#ff0000;" edge="1" source="F1i3Ai_UINqrE0Nstsxu-41" parent="2">
          <mxGeometry relative="1" as="geometry">
            <mxPoint x="115.5" y="97" as="targetPoint" />
          </mxGeometry>
        </mxCell>
        <mxCell id="F1i3Ai_UINqrE0Nstsxu-43" value="管理员登录系统" style="shape=ext;double=1;rounded=1;whiteSpace=wrap;html=1;strokeColor=#0066CC;fillColor=#0066CC;" vertex="1" parent="2">
          <mxGeometry x="115.5" y="57" width="120" height="80" as="geometry" />
        </mxCell>
        <mxCell id="3" value="轻应用入驻" style="swimlane;whiteSpace=wrap" parent="1" vertex="1">
          <mxGeometry x="444.5" y="128" width="280" height="570" as="geometry" />
        </mxCell>
      </root>
    </mxGraphModel>
  </diagram>
</mxfile>
